<?xml version="1.0" standalone="no"?><svg xmlns="http://www.w3.org/2000/svg" xmlns:xlink="http://www.w3.org/1999/xlink" style="isolation:isolate" viewBox="0 0 134.3 157" width="134.3" height="157"><defs><clipPath id="_clipPath_XhbxoPRO3mOu2DNpmDhxTjKMstzNdjbb"><rect width="134.3" height="157"/></clipPath></defs><g clip-path="url(#_clipPath_XhbxoPRO3mOu2DNpmDhxTjKMstzNdjbb)"><path d=" M 78.691 31.405 C 92.99 31.671 106.171 37.95 112.118 45.244 C 121.477 35.885 130.14 27.222 134.333 23.029 C 118.978 7.674 98.834 -0.004 78.691 0 C 58.547 -0.004 38.403 7.674 23.048 23.029 C 23.051 23.032 23.054 23.035 23.069 23.05 C 8.901 37.209 0.103 56.74 0.002 78.309 C 0 78.309 0 78.309 0 78.309 C 0 78.372 0 78.435 0.001 78.498 C 0 78.561 0 78.624 0 78.687 C 0 78.687 0.001 78.687 0.002 78.687 C 0.205 121.944 35.386 157 78.691 157 C 78.691 151.07 78.691 138.819 78.691 125.583 C 61.879 127.292 30.575 110.515 31.398 78.687 C 31.401 78.687 31.409 78.687 31.417 78.687 C 31.412 78.635 31.407 78.584 31.403 78.531 C 31.404 78.457 31.407 78.383 31.409 78.309 C 31.397 78.309 31.384 78.309 31.383 78.309 C 30.594 68.953 35.382 55.322 45.179 45.16 C 45.182 45.163 45.22 45.201 45.258 45.238 C 54.999 34.817 67.174 31.202 78.635 31.404 C 78.654 31.404 78.672 31.405 78.691 31.405 C 78.691 31.405 78.691 31.405 78.691 31.405 Z " fill="rgb(255,255,255)"/><path d=" M 125.962 78.5 C 104.506 78.5 91.674 78.5 78.691 78.5 C 78.691 99.996 78.691 120.344 78.691 125.771 C 104.78 125.771 125.962 104.59 125.962 78.5 Z " fill="rgb(255,255,255)"/></g></svg>