<?xml version="1.0" standalone="no"?><!-- Generator: Gravit.io --><svg xmlns="http://www.w3.org/2000/svg" xmlns:xlink="http://www.w3.org/1999/xlink" style="isolation:isolate" viewBox="0 0 134.3 157" width="134.3" height="157"><defs><clipPath id="_clipPath_gC6itkZADyZ9S2EQBKLujxy9zh8y4xB0"><rect width="134.3" height="157"/></clipPath></defs><g clip-path="url(#_clipPath_gC6itkZADyZ9S2EQBKLujxy9zh8y4xB0)"><linearGradient id="_lgradient_4" x1="14.644660940672615%" y1="14.644660940672633%" x2="85.35533905932738%" y2="85.35533905932738%"><stop offset="0%" stop-opacity="1" style="stop-color:rgb(232,201,109)"/><stop offset="100%" stop-opacity="1" style="stop-color:rgb(255,156,129)"/></linearGradient><path d=" M 78.671 31.397 C 92.967 31.664 106.144 37.941 112.09 45.233 C 121.447 35.876 130.108 27.215 134.3 23.023 C 118.949 7.672 98.81 -0.004 78.671 0 C 58.532 -0.004 38.393 7.672 23.042 23.023 C 23.045 23.026 23.049 23.029 23.063 23.044 C 8.899 37.2 0.103 56.726 0.002 78.29 C 0 78.29 0 78.29 0 78.29 C 0 78.353 0 78.416 0.001 78.479 C 0 78.541 0 78.604 0 78.667 C 0 78.667 0.001 78.667 0.002 78.667 C 0.204 121.914 35.377 156.961 78.671 156.961 C 78.671 151.033 78.671 138.784 78.671 125.552 C 61.863 127.261 30.567 110.487 31.391 78.667 C 31.394 78.667 31.401 78.667 31.409 78.667 C 31.404 78.616 31.399 78.564 31.395 78.511 C 31.397 78.438 31.399 78.364 31.401 78.29 C 31.389 78.29 31.376 78.29 31.375 78.29 C 30.586 68.936 35.373 55.308 45.168 45.149 C 45.171 45.152 45.209 45.189 45.246 45.227 C 54.986 34.808 67.157 31.195 78.616 31.396 C 78.634 31.396 78.653 31.397 78.671 31.398 C 78.671 31.397 78.671 31.397 78.671 31.397 Z " fill="url(#_lgradient_4)"/><linearGradient id="_lgradient_5" x1="85.35533905932738%" y1="14.644660940672615%" x2="14.644660940672626%" y2="85.35533905932738%"><stop offset="0%" stop-opacity="1" style="stop-color:rgb(232,201,109)"/><stop offset="100%" stop-opacity="1" style="stop-color:rgb(255,156,129)"/></linearGradient><path d=" M 125.93 78.481 C 104.48 78.481 91.651 78.481 78.671 78.481 C 78.671 99.971 78.671 120.314 78.671 125.74 C 104.754 125.74 125.93 104.564 125.93 78.481 Z " fill="url(#_lgradient_5)"/></g></svg>